<?xml version="1.0" standalone="no"?>
<!DOCTYPE svg PUBLIC "-//W3C//DTD SVG 20010904//EN"
 "http://www.w3.org/TR/2001/REC-SVG-20010904/DTD/svg10.dtd">
<svg version="1.0" xmlns="http://www.w3.org/2000/svg"
 width="1280.000000pt" height="1280.000000pt" viewBox="0 0 1280.000000 1280.000000"
 preserveAspectRatio="xMidYMid meet">
<metadata>
Created by potrace 1.15, written by Peter Selinger 2001-2017
</metadata>
<g transform="translate(0.000000,1280.000000) scale(0.100000,-0.100000)"
fill="#000000" stroke="none">
<path d="M9835 12781 c-22 -10 -52 -31 -66 -47 -24 -26 -477 -810 -537 -928
-48 -95 -30 -184 51 -250 l39 -31 444 -3 c244 -1 443 -6 442 -10 -1 -4 -434
-439 -964 -966 l-962 -959 -148 95 c-211 135 -343 209 -549 309 -474 230 -977
389 -1495 474 -466 76 -1026 85 -1495 24 -791 -103 -1549 -386 -2232 -835
-484 -317 -935 -738 -1290 -1204 -529 -694 -895 -1578 -1018 -2460 -130 -919
-8 -1860 351 -2726 498 -1201 1380 -2143 2539 -2714 1139 -560 2401 -693 3619
-380 784 201 1477 555 2102 1075 154 128 482 456 610 610 669 804 1082 1738
1213 2740 61 469 52 1029 -24 1495 -85 518 -244 1021 -474 1495 -100 206 -174
338 -309 549 l-95 148 959 962 c527 530 962 963 967 964 4 1 7 -193 7 -430 0
-392 2 -436 18 -467 38 -75 140 -121 220 -99 50 14 940 523 979 561 68 64 64
-34 61 1502 -3 1380 -3 1390 -23 1425 -12 19 -40 48 -64 65 l-43 30 -1396 2
c-1343 3 -1399 2 -1437 -16z m-4120 -4055 c632 -90 1190 -320 1683 -693 659
-499 1124 -1256 1291 -2099 47 -236 55 -336 55 -649 0 -313 -8 -413 -55 -649
-147 -742 -533 -1433 -1072 -1915 -535 -480 -1173 -774 -1907 -877 -159 -23
-663 -26 -810 -6 -470 66 -846 183 -1228 383 -627 327 -1124 824 -1451 1451
-201 383 -317 757 -383 1228 -20 147 -17 651 6 810 101 720 389 1354 851 1880
540 614 1339 1032 2167 1135 68 8 141 17 163 19 95 9 585 -3 690 -18z"/>
</g>
</svg>
