<?xml version="1.0" standalone="no"?>
<!DOCTYPE svg PUBLIC "-//W3C//DTD SVG 20010904//EN"
 "http://www.w3.org/TR/2001/REC-SVG-20010904/DTD/svg10.dtd">
<svg version="1.0" xmlns="http://www.w3.org/2000/svg"
 width="1032.000000pt" height="1280.000000pt" viewBox="0 0 1032.000000 1280.000000"
 preserveAspectRatio="xMidYMid meet">
<g transform="translate(0.000000,1280.000000) scale(0.100000,-0.100000)"
fill="#000000" stroke="none">
<path d="M10120 12790 c-14 -4 -79 -20 -145 -35 -171 -39 -449 -120 -755 -221
-682 -223 -1156 -417 -1182 -483 -25 -63 20 -266 72 -324 28 -31 31 -32 107
-31 92 1 166 23 508 154 267 101 496 178 560 187 41 5 45 4 45 -16 0 -43 -150
-311 -392 -705 -157 -253 -872 -1376 -896 -1406 l-18 -22 -304 51 c-368 61
-518 75 -711 67 -506 -21 -999 -176 -1477 -463 -139 -84 -339 -228 -471 -339
-54 -46 -102 -84 -105 -84 -6 0 -237 183 -402 318 -430 353 -999 504 -1709
452 -1011 -74 -1894 -649 -2420 -1575 -215 -378 -350 -799 -400 -1246 -33
-291 -32 -355 11 -689 63 -486 265 -963 568 -1344 322 -405 843 -803 1337
-1020 209 -92 376 -146 694 -221 154 -36 284 -70 288 -74 4 -4 3 -255 -3 -557
-17 -867 -27 -1122 -43 -1179 -37 -131 -82 -191 -174 -237 l-68 -33 -190 5
c-406 10 -513 7 -593 -18 -132 -41 -195 -135 -178 -265 20 -149 116 -219 338
-247 46 -5 216 -10 380 -10 327 0 383 -6 432 -50 l31 -29 -5 -188 c-3 -103 -5
-291 -5 -418 0 -210 2 -236 22 -300 37 -119 124 -195 223 -195 54 0 183 34
224 59 82 51 96 107 106 432 12 366 43 592 87 641 58 65 137 78 503 88 353 10
418 17 507 61 85 41 106 76 111 190 5 104 -7 147 -53 188 -58 50 -84 54 -450
61 -313 6 -345 8 -406 28 -140 46 -245 148 -285 276 -20 63 -38 627 -30 956 9
396 70 625 198 746 56 53 77 65 173 98 209 74 680 330 1061 577 66 44 125 79
129 79 5 0 56 -46 114 -103 229 -222 446 -370 667 -457 329 -128 967 -165
1573 -90 537 67 956 194 1281 390 413 248 708 546 996 1005 121 193 191 352
258 583 85 292 120 555 119 897 0 391 -50 707 -166 1050 -73 216 -133 342
-293 616 -248 426 -261 444 -598 819 -339 377 -346 385 -346 415 0 148 920
1767 1215 2138 53 67 82 73 99 22 6 -19 11 -213 11 -520 1 -497 4 -554 41
-657 19 -55 59 -96 100 -104 47 -9 137 34 158 75 40 76 76 306 95 601 6 85 16
234 22 330 12 183 8 488 -10 755 -28 393 -66 556 -130 554 -14 0 -37 -4 -51
-9z m-2780 -3335 c230 -35 445 -105 682 -222 270 -132 412 -236 628 -459 136
-140 205 -222 405 -479 182 -233 239 -319 315 -477 145 -301 222 -655 223
-1023 0 -275 -39 -510 -128 -764 -255 -730 -930 -1344 -1795 -1632 -624 -208
-1175 -142 -1914 228 -186 93 -319 168 -336 188 -11 14 -5 25 47 78 274 283
469 699 552 1177 36 205 45 329 45 595 -1 351 -28 594 -94 855 -105 415 -301
801 -579 1140 -33 41 -61 80 -61 87 0 14 114 115 228 201 383 292 821 474
1257 521 120 13 395 6 525 -14z m-4050 -66 c329 -46 726 -208 1065 -434 133
-89 245 -180 245 -200 0 -8 -34 -58 -75 -111 -293 -374 -503 -819 -595 -1254
-53 -255 -64 -596 -25 -837 78 -493 327 -1081 668 -1577 42 -60 73 -114 71
-120 -6 -14 -163 -127 -284 -203 -308 -195 -622 -336 -876 -394 -85 -20 -126
-23 -294 -22 -165 0 -218 4 -345 27 -594 105 -1195 379 -1611 737 -349 299
-580 702 -671 1166 -25 128 -27 158 -27 403 -1 295 9 383 69 630 95 385 259
749 511 1132 392 595 862 925 1451 1017 161 25 336 50 388 55 59 6 248 -3 335
-15z m1777 -1154 c201 -298 356 -652 422 -959 51 -235 72 -833 37 -1069 -57
-393 -173 -642 -439 -944 -40 -45 -79 -84 -87 -88 -44 -19 -256 319 -378 605
-306 713 -290 1434 45 2105 109 217 278 469 311 463 8 -2 49 -52 89 -113z"/>
</g>
</svg>
